<?xml version="1.0" encoding="UTF-8" standalone="no"?>
<!-- Created with Inkscape (http://www.inkscape.org/) -->
<svg xmlns:inkscape="http://www.inkscape.org/namespaces/inkscape" xmlns:rdf="http://www.w3.org/1999/02/22-rdf-syntax-ns#" xmlns="http://www.w3.org/2000/svg" xmlns:xlink="http://www.w3.org/1999/xlink" xmlns:ns1="http://sozi.baierouge.fr" xmlns:cc="http://creativecommons.org/ns#" xmlns:sodipodi="http://sodipodi.sourceforge.net/DTD/sodipodi-0.dtd" xmlns:dc="http://purl.org/dc/elements/1.1/" id="svg2" xml:space="preserve" viewBox="0 0 39.413 22.06" version="1.1" inkscape:version="0.91 r13725">
  <g id="g10" transform="matrix(1.25 0 0 -1.25 0 22.06)">
    <g id="g12">
      <path id="path14" style="fill-rule:evenodd;fill:#98281c" d="m31.078 1.801v0.199c0 0.133-0.012 0.281-0.039 0.441-0.051 0.16-0.066 0.371-0.039 0.641-0.16 0-0.332 0.133-0.52 0.398-0.214 0.266-0.359 0.453-0.441 0.559-0.051 0.054-0.227 0.137-0.519 0.242-0.293 0.078-0.508 0.133-0.641 0.16-0.184 0.027-0.414 0-0.68-0.082-0.265-0.078-0.426-0.105-0.48-0.078-0.692 0.105-1.36 0.387-2 0.84-0.824 0.558-1.227 1.16-1.199 1.801 0 0.078 0.027 0.199 0.082 0.359 0.05 0.16 0.078 0.277 0.078 0.359 0 0.215-0.067 0.36-0.2 0.442-0.187 0.105-0.32 0.265-0.402 0.476-0.023 0.082-0.039 0.254-0.039 0.524-0.027 0.265-0.051 0.426-0.078 0.476-0.082 0.243-0.215 0.442-0.402 0.602l-0.161 0.16c-0.023 0.023-0.191 0.125-0.5 0.301 0.102-0.055 0.204-0.102 0.301-0.141 0.133-0.082 0.254-0.16 0.36-0.238 0.16-0.137 0.308-0.27 0.441-0.402 0.133-0.133 0.238-0.282 0.32-0.442 0.078-0.156 0.133-0.316 0.16-0.476 0.055-0.161 0.094-0.336 0.122-0.524 0.023-0.105 0.105-0.211 0.238-0.316 0.215-0.137 0.281-0.309 0.199-0.524-0.051-0.16-0.078-0.316-0.078-0.476-0.027-0.11-0.027-0.215 0-0.321 0.078-0.402 0.277-0.734 0.598-1 0.535-0.429 1.109-0.734 1.722-0.921 0.586-0.188 1.16-0.215 1.719-0.079 0.105 0.051 0.227 0.079 0.359 0.079 0.746-0.106 1.36-0.532 1.84-1.282 0.055-0.105 0.121-0.211 0.199-0.316 0.161-0.242 0.176-0.508 0.043-0.801v-0.043c-0.109-0.238-0.226-0.437-0.363-0.597zm-24.918 15.199c-0.133 0.054-0.265 0.121-0.398 0.199-0.375 0.199-0.672 0.309-0.883 0.32 0.242 0.082 0.48 0.121 0.723 0.121 0.16 0.028 0.32-0.015 0.476-0.121 0.082-0.051 0.176-0.121 0.281-0.199 0.161-0.133 0.348-0.281 0.563-0.441 0.133-0.106 0.266-0.227 0.398-0.36 0.348-0.343 0.746-0.664 1.2-0.961 0.347-0.211 0.695-0.398 1.039-0.558 0.535-0.266 1.066-0.481 1.601-0.641 0.078 0 0.16-0.012 0.238-0.039 0.508-0.055 1.016-0.187 1.524-0.398 0.398-0.161 0.773-0.254 1.117-0.282 0.188 0 0.359 0.012 0.52 0.039 0.109 0.028 0.226 0.016 0.363-0.039 0.371-0.132 0.746-0.293 1.117-0.48-0.238 0-0.437 0.066-0.598 0.199-0.187 0.133-0.32 0.199-0.402 0.199-0.133 0.028-0.266-0.011-0.398-0.117-0.133-0.109-0.243-0.16-0.321-0.16-0.265 0.027-0.64 0.117-1.121 0.277-0.664 0.215-1.066 0.336-1.199 0.364-0.48 0.105-0.855 0.199-1.121 0.277-0.481 0.109-0.906 0.281-1.277 0.519-0.161 0.083-0.336 0.161-0.524 0.243-0.211 0.078-0.371 0.132-0.476 0.16-0.375 0.16-0.735 0.414-1.082 0.758-0.375 0.375-0.641 0.629-0.801 0.761-0.184 0.161-0.371 0.282-0.559 0.36z" inkscape:connector-curvature="0"/>
      <path id="path16" style="fill-rule:evenodd;fill:#d41914" d="m24.48 1.519c-0.054 0.028-0.105 0.055-0.16 0.082-0.105 0.051-0.187 0.094-0.242 0.117-0.051 0-0.133 0.016-0.238 0.043h-0.238c-0.11 0.024-0.297 0.118-0.563 0.278 0.293-0.078 0.613-0.094 0.961-0.039 0.105 0 0.199 0.015 0.281 0.039 0.266 0.109 0.414 0.293 0.438 0.562 0 0.266-0.117 0.532-0.36 0.797-0.078 0.11-0.16 0.203-0.238 0.281 0.481-0.371 1.024-0.625 1.641-0.757 0.105-0.028 0.304-0.028 0.597 0 0.266 0.023 0.469 0.023 0.602 0 0.051 0 0.105-0.016 0.16-0.043-0.133 0.16-0.266 0.254-0.402 0.281-0.746 0.16-1.321 0.414-1.719 0.762-0.266 0.183-0.52 0.519-0.762 1-0.105 0.16-0.199 0.304-0.277 0.437-0.133 0.242-0.254 0.414-0.359 0.52-0.082 0.082-0.215 0.175-0.403 0.281-0.211 0.105-0.371 0.187-0.48 0.238-0.371 0.188-0.559 0.414-0.559 0.684 0 0.504-0.121 0.863-0.359 1.078-0.133 0.082-0.215 0.148-0.242 0.199-0.079 0.082-0.118 0.172-0.118 0.281 0 0.188 0.106 0.399 0.321 0.641 0.183 0.211 0.277 0.359 0.277 0.437 0 0.161-0.117 0.348-0.359 0.563-0.293 0.238-0.453 0.371-0.481 0.398-0.105 0.215-0.265 0.387-0.48 0.52-0.239 0.16-0.492 0.242-0.758 0.242-0.16 0.027-0.293 0.027-0.402 0-0.106-0.027-0.227-0.027-0.36 0-0.078 0-0.172 0.027-0.277 0.078-0.137 0.055-0.242 0.106-0.32 0.16-0.375 0.133-0.774 0.215-1.204 0.243-0.132 0.023-0.343 0.023-0.636 0h-0.641c-0.293 0-0.562 0.05-0.801 0.16-0.105 0.051-0.254 0.16-0.441 0.316-0.184 0.137-0.344 0.242-0.481 0.32-0.183 0.083-0.437 0.122-0.757 0.122-0.481-0.028-0.762-0.051-0.84-0.079-0.215 0-0.535 0.051-0.961 0.161-0.426 0.105-0.668 0.16-0.719 0.16-0.562-0.11-0.867-0.16-0.922-0.16-0.054 0-0.265 0.093-0.64 0.277-0.454 0.187-0.692 0.293-0.719 0.32-0.348 0.106-0.602 0.242-0.762 0.403-0.183 0.211-0.383 0.398-0.598 0.558-0.132 0.106-0.265 0.188-0.402 0.238-0.156 0.028-0.277 0.055-0.359 0.083-0.133 0.054-0.239 0.144-0.321 0.281-0.105 0.183-0.183 0.304-0.238 0.359-0.105 0.106-0.293 0.199-0.558 0.277-0.215 0.11-0.469 0.176-0.762 0.204h-0.801c0.027 0 0.055 0.011 0.082 0.039-0.055 0-0.109 0.011-0.16 0.039l0.039 0.039c-0.188 0-0.398 0.043-0.641 0.121-0.347 0.105-0.613 0.16-0.8 0.16-0.051-0.027-0.145-0.055-0.278-0.078l-0.242-0.082c-0.078 0-0.144 0.027-0.199 0.082-0.078 0.023-0.121 0.066-0.121 0.117-0.024 0.055-0.024 0.106 0 0.16 0.347 0.106 0.722 0.188 1.121 0.242 0.426 0 0.801 0.106 1.121 0.321 0.238 0.16 0.492 0.293 0.758 0.398 0.054-0.027 0.109-0.054 0.16-0.082 0-0.023 0.082-0.09 0.242-0.199 0.133-0.133 0.238-0.199 0.32-0.199 0.051-0.028 0.184-0.067 0.399-0.121 0.187-0.051 0.293-0.133 0.32-0.239v-0.281c0-0.183 0.012-0.305 0.039-0.359 0.082-0.133 0.254-0.293 0.52-0.481 0.242-0.16 0.402-0.238 0.48-0.238 0.188-0.027 0.387-0.133 0.602-0.32 0.105-0.106 0.265-0.282 0.48-0.52 0.348-0.402 0.692-0.695 1.039-0.883 0.375-0.183 0.758-0.25 1.16-0.199 0.508 0.027 0.934 0.055 1.282 0.082 0.426 0.027 0.785 0.051 1.078 0.078v0.039c-0.188 0.055-0.453 0.082-0.801 0.082-0.371-0.027-0.664-0.039-0.879-0.039-0.719-0.027-1.254 0.078-1.601 0.321-0.239 0.16-0.481 0.371-0.719 0.636-0.238 0.27-0.481 0.469-0.719 0.602-0.375 0.16-0.656 0.293-0.84 0.398-0.32 0.188-0.535 0.387-0.64 0.602 0 0.027-0.016 0.094-0.039 0.199 0 0.082-0.016 0.149-0.043 0.199-0.051 0.137-0.188 0.282-0.399 0.442 0.188-0.078 0.375-0.199 0.559-0.36 0.16-0.132 0.426-0.386 0.801-0.761 0.347-0.348 0.707-0.598 1.082-0.758 0.105-0.028 0.265-0.082 0.476-0.16 0.188-0.082 0.363-0.16 0.524-0.243 0.371-0.238 0.796-0.41 1.277-0.519 0.266-0.078 0.641-0.172 1.121-0.277 0.133-0.028 0.535-0.149 1.199-0.364 0.481-0.16 0.856-0.25 1.121-0.277 0.078 0 0.188 0.051 0.321 0.16 0.132 0.106 0.265 0.145 0.398 0.117 0.082 0 0.215-0.066 0.402-0.199 0.161-0.133 0.36-0.199 0.598-0.199h0.121c0.106-0.078 0.227-0.133 0.36-0.16 0.187-0.055 0.347-0.055 0.48 0 0.078 0.027 0.172 0.039 0.281 0.039 0.078 0.027 0.184 0 0.321-0.078 0.183-0.16 0.386-0.293 0.597-0.403h0.039c0.137 0 0.254 0.028 0.364 0.082 0.183-0.132 0.398-0.254 0.636-0.359 0.297-0.133 0.59-0.215 0.883-0.242 0.184-0.024 0.344-0.039 0.481-0.039h0.359c0.504-0.055 0.961-0.239 1.359-0.559 0.078-0.055 0.133-0.121 0.16-0.199 0.028-0.16 0.028-0.297 0-0.402 0.106-0.051 0.215-0.106 0.321-0.161 0.035-0.019 0.07-0.039 0.097-0.058 0.309-0.176 0.477-0.278 0.5-0.301l0.161-0.16c0.187-0.16 0.32-0.359 0.402-0.602 0.027-0.05 0.051-0.211 0.078-0.476 0-0.27 0.016-0.442 0.039-0.524 0.082-0.211 0.215-0.371 0.402-0.476 0.133-0.082 0.2-0.227 0.2-0.442 0-0.082-0.028-0.199-0.078-0.359-0.055-0.16-0.082-0.281-0.082-0.359-0.028-0.641 0.375-1.243 1.199-1.801 0.64-0.453 1.308-0.735 2-0.84 0.054-0.027 0.215 0 0.48 0.078 0.266 0.082 0.496 0.106 0.68 0.082 0.133-0.027 0.348-0.082 0.641-0.16 0.292-0.105 0.468-0.188 0.519-0.242 0.082-0.106 0.227-0.293 0.441-0.559 0.188-0.265 0.36-0.398 0.52-0.398-0.027-0.27-0.012-0.481 0.039-0.641 0.027-0.16 0.039-0.308 0.039-0.441v-0.199c-0.105-0.083-0.211-0.149-0.316-0.2-0.082-0.054-0.16-0.093-0.242-0.121-0.641-0.32-1.332-0.519-2.079-0.601h-0.242c-0.105-0.024-0.226-0.039-0.359-0.039-0.828-0.051-1.602-0.188-2.32-0.399 0.132 0.106 0.199 0.238 0.199 0.399 0 0.132-0.067 0.265-0.199 0.402-0.321 0.184-0.532 0.277-0.641 0.277h-0.399zm4.598 2.321 0.242-0.161c0.133-0.078 0.227-0.121 0.282-0.121l0.117 0.121c0.082 0.055 0.148 0.082 0.203 0.082-0.457 0.344-0.723 0.532-0.801 0.559-0.082 0-0.336-0.066-0.762-0.199-0.453-0.133-0.757-0.188-0.918-0.16-0.296 0.05-0.613 0.172-0.961 0.359-0.425 0.215-0.761 0.375-1 0.481-0.105 0.054-0.214 0.121-0.32 0.199-0.238 0.265-0.465 0.558-0.68 0.879l-0.16 0.16c-0.082 0.109-0.121 0.215-0.121 0.32-0.054 0.133-0.094 0.387-0.121 0.762-0.023 0.32-0.133 0.531-0.316 0.64h-0.043c-0.293 0.106-0.531 0.211-0.719 0.321-0.32 0.16-0.48 0.316-0.48 0.476 0 0.137 0.148 0.297 0.441 0.481 0.32 0.187 0.48 0.359 0.48 0.519 0 0.188-0.242 0.442-0.722 0.762-0.266 0.16-0.453 0.266-0.559 0.32-0.215 0.106-0.348 0.188-0.398 0.239 0.023 0.027 0.066 0.082 0.117 0.16 0.055 0.054 0.082 0.094 0.082 0.121s-0.016 0.055-0.039 0.082c-0.027 0-0.055 0.012-0.082 0.039-0.028 0-0.067 0.012-0.121 0.039-0.024 0-0.078-0.027-0.16-0.078-0.079-0.055-0.118-0.094-0.118-0.121 0.051-0.16 0.254-0.36 0.598-0.602 0.32-0.238 0.481-0.414 0.481-0.519 0-0.188-0.122-0.375-0.36-0.559-0.238-0.187-0.359-0.359-0.359-0.519 0-0.137 0.121-0.309 0.359-0.524 0.16-0.156 0.32-0.265 0.481-0.316l0.238-0.242c0.16-0.215 0.281-0.426 0.359-0.641 0.082-0.344 0.27-0.598 0.563-0.758 0.027-0.055 0.051-0.094 0.078-0.121h0.043c0-0.055 0.012-0.121 0.039-0.199 0.051-0.055 0.172-0.254 0.359-0.602 0.078-0.211 0.188-0.371 0.321-0.48 0.078-0.078 0.254-0.211 0.519-0.399 0.266-0.187 0.426-0.308 0.481-0.359 0.054-0.082 0.238-0.188 0.558-0.32 0.133-0.028 0.242-0.067 0.321-0.121 0.402-0.239 0.812-0.372 1.242-0.399 0.371-0.082 0.652-0.027 0.84 0.16l0.199 0.16c0.078 0.051 0.172 0.079 0.277 0.079z" inkscape:connector-curvature="0"/>
      <path id="path18" style="fill-rule:evenodd;fill:#df481b" d="m29.078 3.84c-0.105 0-0.199-0.028-0.277-0.079l-0.199-0.16c-0.188-0.187-0.469-0.242-0.84-0.16-0.43 0.027-0.84 0.16-1.242 0.399-0.079 0.054-0.188 0.093-0.321 0.121-0.32 0.132-0.504 0.238-0.558 0.32-0.055 0.051-0.215 0.172-0.481 0.359-0.265 0.188-0.441 0.321-0.519 0.399-0.133 0.109-0.243 0.269-0.321 0.48-0.187 0.348-0.308 0.547-0.359 0.602-0.027 0.078-0.039 0.144-0.039 0.199h-0.043c-0.024 0.027-0.051 0.066-0.078 0.121-0.293 0.16-0.481 0.414-0.563 0.758-0.078 0.215-0.199 0.426-0.359 0.641l-0.238 0.242c-0.161 0.051-0.321 0.16-0.481 0.316-0.238 0.215-0.359 0.387-0.359 0.524 0 0.16 0.121 0.332 0.359 0.519 0.238 0.184 0.36 0.371 0.36 0.559 0 0.105-0.161 0.281-0.481 0.519-0.344 0.242-0.547 0.442-0.598 0.602 0 0.027 0.039 0.066 0.118 0.121 0.082 0.051 0.136 0.078 0.16 0.078 0.054-0.027 0.093-0.039 0.121-0.039 0.027-0.027 0.055-0.039 0.082-0.039 0.023-0.027 0.039-0.055 0.039-0.082s-0.027-0.067-0.082-0.121c-0.051-0.078-0.094-0.133-0.117-0.16 0.05-0.051 0.183-0.133 0.398-0.239 0.106-0.054 0.293-0.16 0.559-0.32 0.48-0.32 0.722-0.574 0.722-0.762 0-0.16-0.16-0.332-0.48-0.519-0.293-0.184-0.441-0.344-0.441-0.481 0-0.16 0.16-0.316 0.48-0.476 0.188-0.11 0.426-0.215 0.719-0.321h0.043c0.183-0.109 0.293-0.32 0.316-0.64 0.027-0.375 0.067-0.629 0.121-0.762 0-0.105 0.039-0.211 0.121-0.32l0.16-0.16c0.215-0.321 0.442-0.614 0.68-0.879 0.106-0.078 0.215-0.145 0.32-0.199 0.239-0.106 0.575-0.266 1-0.481 0.348-0.187 0.665-0.305 0.961-0.359 0.161-0.028 0.465 0.027 0.918 0.16 0.426 0.133 0.68 0.199 0.762 0.199 0.078-0.027 0.344-0.215 0.801-0.559-0.055 0-0.121-0.027-0.203-0.082l-0.117-0.121c-0.055 0-0.149 0.043-0.282 0.121l-0.242 0.161zm-8.738-0.758h-0.02c-0.054 0.051-0.105 0.133-0.16 0.238-0.265 0.375-0.465 0.602-0.601 0.68-0.161 0.105-0.293 0.215-0.399 0.32-0.105 0.106-0.121 0.266-0.039 0.481 0.051 0.214-0.016 0.359-0.199 0.441-0.215 0.078-0.336 0.133-0.363 0.156-0.184 0.137-0.293 0.363-0.321 0.684-0.023 0.531-0.039 0.812-0.039 0.84-0.133 0.558-0.437 1.05-0.918 1.476-0.453 0.375-0.906 0.574-1.359 0.602h-0.442c-0.132 0.027-0.386 0.242-0.761 0.64-0.399 0.399-0.852 0.625-1.36 0.68-0.48 0.027-0.8-0.094-0.961-0.359 0.082 0.215 0.028 0.359-0.16 0.437-0.211 0.11-0.316 0.176-0.316 0.203 0.078-0.027 0.144-0.027 0.199 0 0-0.027 0.024-0.027 0.078 0l0.121 0.039c0.078 0.028 0.133 0.039 0.16 0.039 0.079 0 0.161-0.027 0.239-0.078 0.082-0.054 0.176-0.066 0.281-0.043 0.133 0 0.332 0.043 0.602 0.121 0.238 0.082 0.398 0.133 0.476 0.161 0.082 0 0.137-0.051 0.16-0.161 0-0.027-0.011-0.054-0.039-0.078-0.027-0.027-0.039-0.054-0.039-0.082 0.078 0 0.188 0.016 0.32 0.039 0.079 0 0.161-0.027 0.239-0.078 0.027-0.082 0.054-0.148 0.082-0.199 0.027-0.055 0.094-0.066 0.199-0.039 0.078 0 0.172 0.023 0.281 0.078 0.133 0.055 0.227 0.094 0.278 0.121h0.242v-0.16l-0.16-0.242c0-0.078 0.027-0.133 0.078-0.16 0.054-0.024 0.148-0.024 0.281 0-0.078-0.293 0.039-0.465 0.359-0.52 0.188-0.027 0.508-0.027 0.961 0-0.054-0.183-0.039-0.32 0.039-0.398 0.055-0.055 0.176-0.094 0.36-0.121 0.242-0.028 0.386-0.067 0.441-0.122 0.133-0.05 0.215-0.16 0.238-0.32 0.028-0.078 0.028-0.222 0-0.437 0-0.215 0.016-0.387 0.043-0.52 0.051-0.215 0.145-0.359 0.278-0.441 0.136-0.078 0.203-0.172 0.203-0.282-0.027-0.078-0.067-0.199-0.121-0.359-0.082-0.183-0.121-0.293-0.121-0.32 0-0.184 0.082-0.344 0.242-0.481 0.105-0.05 0.277-0.132 0.519-0.238 0.133-0.055 0.211-0.215 0.239-0.48 0.054-0.293 0.082-0.493 0.082-0.598 0-0.082 0.093-0.27 0.277-0.563 0.188-0.293 0.281-0.464 0.281-0.519 0-0.031 0.008-0.059 0.02-0.078z" inkscape:connector-curvature="0"/>
      <path id="path20" style="fill-rule:evenodd;fill:#861905" d="m0.078 15.558v-0.117c0.801-0.48 1.629-0.922 2.481-1.32 0.535-0.668 1.109-1.281 1.722-1.84 0.239-0.215 0.481-0.426 0.719-0.641 0.16-0.132 0.32-0.265 0.48-0.398 0.266-0.27 0.575-0.469 0.918-0.602 0.375-0.16 0.762-0.293 1.161-0.398 0.187-0.027 0.363-0.055 0.519-0.082 0.297 0 0.602 0.055 0.922 0.16 0.188 0.055 0.359 0.027 0.52-0.078 0.027-0.027 0.066-0.055 0.121-0.082 0.238 0.027 0.464 0.121 0.679 0.281 0.239 0.133 0.481 0.172 0.719 0.117 0.082-0.023 0.133-0.066 0.16-0.117 0.082-0.242 0.242-0.375 0.481-0.402 0.082-0.024 0.16-0.039 0.242-0.039 0.156 0.027 0.316 0.015 0.476-0.039 0.11-0.028 0.215-0.055 0.321-0.082 0.054-0.051 0.121-0.078 0.203-0.078 0.023-0.028 0.066-0.028 0.117 0 0.375 0.105 0.707 0.078 1-0.083 0.32-0.183 0.547-0.437 0.68-0.757 0.054-0.106 0.093-0.227 0.121-0.36 0.055-0.187 0.172-0.281 0.359-0.281 0.188 0.027 0.375 0.039 0.563 0.039 0.16-0.027 0.304-0.094 0.437-0.199 0.586-0.399 0.989-0.984 1.199-1.762 0.028-0.156 0.055-0.305 0.082-0.437 0.106-0.563 0.375-1.039 0.801-1.442 0.348-0.32 0.664-0.652 0.957-1 0.11-0.105 0.188-0.211 0.242-0.32 0.055-0.106 0.133-0.211 0.239-0.32 0.109-0.106 0.203-0.211 0.281-0.321 0.078-0.105 0.145-0.183 0.199-0.238l0.082-0.078c0.028 0 0.051-0.016 0.078-0.043 0.082-0.078 0.161-0.145 0.243-0.199 0.078-0.028 0.144-0.067 0.199-0.121 0.32-0.184 0.664-0.371 1.039-0.559 0.133-0.078 0.293-0.144 0.48-0.199 0.321-0.055 0.653-0.094 1-0.121 0.348-0.055 0.692-0.121 1.039-0.199 0.188-0.028 0.36-0.067 0.52-0.122 0.082-0.027 0.16-0.054 0.242-0.078 0.106-0.027 0.238-0.082 0.399-0.16 0.718 0.211 1.492 0.348 2.32 0.399 0.133 0 0.254 0.015 0.359 0.039h0.242c0.747 0.082 1.438 0.281 2.079 0.601l-0.282-0.281c-0.16-0.184-0.453-0.293-0.879-0.32-0.531-0.024-0.839-0.051-0.918-0.078-0.773-0.321-1.402-0.536-1.882-0.641-0.532-0.106-1.145-0.16-1.84-0.16-0.16 0-0.453 0.121-0.879 0.359-0.426 0.242-1.012 0.359-1.762 0.359-0.504 0-0.973 0.122-1.398 0.364-0.321 0.183-0.653 0.449-1 0.797-0.266 0.242-0.508 0.64-0.719 1.203-0.188 0.398-0.469 0.691-0.84 0.879-0.187 0.105-0.359 0.453-0.519 1.039-0.028 0.054-0.149 0.187-0.364 0.398-0.16 0.188-0.238 0.336-0.238 0.442 0 0.32-0.133 0.574-0.398 0.761-0.27 0.184-0.403 0.344-0.403 0.481 0 0.051 0.028 0.117 0.082 0.199 0.078 0.051 0.117 0.094 0.117 0.117l-0.117 0.203c-0.109 0.16-0.187 0.266-0.242 0.321h-0.68l-0.078-0.243c-0.027-0.078-0.109-0.121-0.242-0.121-0.293 0-0.437 0.137-0.437 0.403 0 0.453-0.043 0.757-0.122 0.918-0.16 0.16-0.32 0.375-0.48 0.64-0.16 0.215-0.348 0.321-0.559 0.321-0.16 0-0.32-0.079-0.48-0.239s-0.266-0.242-0.32-0.242c-0.055 0-0.121 0.067-0.2 0.199-0.082 0.11-0.16 0.16-0.242 0.16-0.054 0-0.16-0.023-0.32-0.078-0.16-0.054-0.293-0.082-0.399-0.082-0.347 0-0.519 0.094-0.519 0.282-0.027 0.214-0.133 0.32-0.32 0.32-0.161 0-0.293-0.094-0.403-0.281-0.105-0.184-0.238-0.278-0.398-0.278-0.055 0-0.145 0.067-0.281 0.2-0.106 0.16-0.184 0.238-0.239 0.238-0.082 0-0.215-0.051-0.398-0.16-0.215-0.106-0.363-0.161-0.442-0.161-0.718 0-1.613 0.321-2.679 0.961-0.906 0.563-1.563 1.082-1.961 1.563-0.399 0.476-1.16 1.144-2.281 2l-1.559 1.156c0 0.055 0.012 0.094 0.039 0.121 0 0.028 0.016 0.039 0.039 0.039z" inkscape:connector-curvature="0"/>
      <path id="path22" style="fill-rule:evenodd;fill:#c24b29" d="m0.641 16.16c0.214 0.105 0.425 0.187 0.64 0.238 0.078-0.238 0.266-0.371 0.559-0.398 0.133 0 0.348 0.027 0.64 0.082 0.188-0.028 0.442-0.067 0.758-0.121 0.27-0.055 0.481-0.082 0.641-0.082 0.027 0 0.082 0.015 0.16 0.043h0.801c0.293-0.028 0.547-0.094 0.762-0.204 0.265-0.078 0.453-0.171 0.558-0.277 0.055-0.055 0.133-0.176 0.238-0.359 0.082-0.137 0.188-0.227 0.321-0.281 0.082-0.028 0.203-0.055 0.359-0.083 0.137-0.05 0.27-0.132 0.402-0.238 0.215-0.16 0.415-0.347 0.598-0.558 0.16-0.161 0.414-0.297 0.762-0.403 0.027-0.027 0.265-0.133 0.719-0.32 0.375-0.184 0.586-0.277 0.64-0.277 0.055 0 0.36 0.05 0.922 0.16 0.051 0 0.293-0.055 0.719-0.16 0.426-0.11 0.746-0.161 0.961-0.161 0.078 0.024 0.359 0.051 0.84 0.079 0.32 0 0.574-0.039 0.757-0.122 0.137-0.078 0.297-0.183 0.481-0.32 0.187-0.156 0.336-0.265 0.441-0.316 0.239-0.11 0.508-0.16 0.801-0.16h0.641c0.293 0.023 0.504 0.023 0.636 0 0.43-0.028 0.829-0.11 1.204-0.243 0.078-0.054 0.183-0.105 0.32-0.16 0.105-0.051 0.199-0.078 0.277-0.078 0.133-0.027 0.254-0.027 0.36 0 0.109 0.027 0.242 0.027 0.402 0 0.266 0 0.519-0.082 0.758-0.242 0.215-0.133 0.375-0.305 0.48-0.52 0.028-0.027 0.188-0.16 0.481-0.398 0.242-0.215 0.359-0.402 0.359-0.563 0-0.078-0.094-0.226-0.277-0.437-0.215-0.242-0.321-0.453-0.321-0.641 0-0.105 0.039-0.199 0.118-0.281 0.027-0.051 0.109-0.117 0.242-0.199 0.238-0.215 0.359-0.574 0.359-1.078 0-0.27 0.188-0.496 0.559-0.684 0.109-0.051 0.269-0.133 0.48-0.238 0.188-0.106 0.321-0.199 0.403-0.281 0.105-0.106 0.226-0.278 0.359-0.52 0.078-0.133 0.172-0.277 0.277-0.437 0.242-0.481 0.496-0.817 0.762-1 0.398-0.348 0.973-0.602 1.719-0.762 0.136-0.027 0.269-0.121 0.402-0.281-0.055 0.027-0.109 0.043-0.16 0.043-0.133 0.023-0.336 0.023-0.602 0-0.293-0.028-0.492-0.028-0.597 0-0.617 0.132-1.16 0.386-1.641 0.757 0.078-0.078 0.16-0.171 0.238-0.281 0.243-0.265 0.36-0.531 0.36-0.797-0.024-0.269-0.172-0.453-0.438-0.562-0.082-0.024-0.176-0.039-0.281-0.039-0.348-0.055-0.668-0.039-0.961 0.039-0.238 0.082-0.68 0.203-1.32 0.359-0.641 0.16-1.039 0.387-1.199 0.684-0.188 0.293-0.282 0.719-0.282 1.277 0 0.563-0.011 0.867-0.039 0.922-0.054 0.133-0.211 0.332-0.48 0.598-0.184 0.16-0.266 0.375-0.239 0.64 0 0.055 0.067 0.176 0.2 0.36 0.132 0.214 0.215 0.347 0.242 0.402-0.027 0.051-0.16 0.332-0.402 0.84-0.293 0.453-0.465 0.719-0.52 0.801-0.215 0.238-0.48 0.41-0.801 0.519-0.32 0.078-0.492 0.145-0.519 0.199-0.051 0.078-0.106 0.254-0.16 0.52-0.028 0.187-0.079 0.32-0.161 0.398-0.187 0.188-0.371 0.309-0.558 0.364-0.16 0.05-0.414 0.093-0.762 0.117-0.16 0-0.305-0.024-0.437-0.078-0.161-0.055-0.297-0.082-0.403-0.082-0.054 0-0.144 0.054-0.277 0.16-0.188 0.082-0.402 0.121-0.641 0.121-0.269 0-0.469-0.039-0.601-0.121-0.133-0.078-0.266-0.117-0.399-0.117l-0.203-0.043c-0.051 0.027-0.09 0.093-0.117 0.203 0 0.078 0.039 0.16 0.117 0.238 0.082 0.055 0.11 0.133 0.082 0.238-0.16 0.028-0.398 0.055-0.719 0.082-0.347 0.055-0.601 0.067-0.761 0.039-0.028 0-0.282-0.066-0.758-0.199-0.457-0.133-0.828-0.215-1.121-0.238-0.133-0.027-0.281-0.043-0.442-0.043-0.238 0-0.371 0.055-0.398 0.16-0.027 0.082-0.055 0.254-0.082 0.52-0.504-0.078-0.973-0.039-1.399 0.121-0.453 0.187-0.785 0.535-1 1.039-0.027 0.054-0.054 0.16-0.082 0.32 0 0.133-0.027 0.227-0.078 0.281-0.082 0.266-0.293 0.52-0.64 0.758-0.239 0.188-0.559 0.391-0.961 0.602-0.321 0.16-0.625 0.293-0.918 0.398-0.321 0.082-0.602 0.11-0.84 0.082-0.426-0.027-0.84 0-1.242 0.078-0.614 0.082-0.957 0.27-1.039 0.563-0.028 0-0.039 0.012-0.039 0.039z" inkscape:connector-curvature="0"/>
      <path id="path24" style="fill-rule:evenodd;fill:#ff8a4e" d="m4.879 17.519c0.211-0.011 0.508-0.117 0.883-0.32 0.133-0.078 0.265-0.145 0.398-0.199 0.211-0.16 0.348-0.305 0.399-0.442 0.027-0.05 0.043-0.117 0.043-0.199 0.023-0.105 0.039-0.172 0.039-0.199 0.105-0.215 0.32-0.414 0.64-0.602 0.184-0.105 0.465-0.238 0.84-0.398 0.238-0.133 0.481-0.332 0.719-0.602 0.238-0.265 0.48-0.476 0.719-0.636 0.347-0.243 0.882-0.348 1.601-0.321 0.215 0 0.508 0.012 0.879 0.039 0.348 0 0.613-0.027 0.801-0.082v-0.039c-0.293-0.027-0.652-0.051-1.078-0.078-0.348-0.027-0.774-0.055-1.282-0.082-0.402-0.051-0.785 0.016-1.16 0.199-0.347 0.188-0.695 0.481-1.039 0.883-0.215 0.238-0.375 0.414-0.48 0.52-0.215 0.187-0.414 0.293-0.602 0.32-0.078 0-0.238 0.078-0.48 0.238-0.266 0.188-0.438 0.348-0.52 0.481-0.027 0.054-0.039 0.176-0.039 0.359v0.281c-0.027 0.106-0.133 0.188-0.32 0.239-0.215 0.054-0.348 0.093-0.399 0.121-0.082 0-0.187 0.066-0.32 0.199-0.16 0.109-0.242 0.176-0.242 0.199-0.051 0.028-0.106 0.055-0.16 0.082 0.027 0 0.066 0.012 0.121 0.039h0.039z" inkscape:connector-curvature="0"/>
      <path id="path26" style="fill-rule:evenodd;fill:#ac0a00" d="m23.039 2.039c0.266-0.16 0.453-0.25 0.563-0.278h0.238c0.105-0.027 0.187-0.043 0.238-0.043 0.055-0.023 0.137-0.066 0.242-0.117 0.051-0.027 0.106-0.054 0.16-0.082-0.054 0-0.105-0.011-0.16-0.039-0.535 0-0.933 0.039-1.199 0.121-0.133 0.024-0.348 0.117-0.641 0.278l-0.441 0.203c-0.719 0.183-1.211 0.41-1.48 0.679-0.051 0.079-0.118 0.172-0.2 0.278 0 0.023-0.004 0.035-0.019 0.043-0.012 0.019-0.02 0.047-0.02 0.078 0 0.055-0.093 0.226-0.281 0.519-0.184 0.293-0.277 0.481-0.277 0.563 0 0.105-0.028 0.305-0.082 0.598-0.028 0.265-0.106 0.425-0.239 0.48-0.242 0.106-0.414 0.188-0.519 0.238-0.16 0.137-0.242 0.297-0.242 0.481 0 0.027 0.039 0.137 0.121 0.32 0.051 0.16 0.094 0.281 0.121 0.359 0 0.11-0.067 0.204-0.203 0.282-0.133 0.082-0.227 0.226-0.278 0.441-0.027 0.133-0.043 0.305-0.043 0.52 0.028 0.215 0.028 0.359 0 0.437-0.027 0.16-0.105 0.27-0.238 0.32-0.055 0.055-0.199 0.094-0.441 0.122-0.184 0.027-0.305 0.066-0.36 0.121-0.078 0.078-0.093 0.215-0.039 0.398-0.453-0.027-0.773-0.027-0.961 0-0.32 0.055-0.437 0.227-0.359 0.52-0.133-0.024-0.227-0.024-0.281 0-0.051 0.027-0.078 0.082-0.078 0.16l0.16 0.242v0.16h-0.242c-0.051-0.027-0.145-0.066-0.278-0.121-0.109-0.055-0.203-0.078-0.281-0.078-0.105-0.027-0.172-0.016-0.199 0.039-0.028 0.051-0.055 0.117-0.082 0.199-0.078 0.051-0.16 0.078-0.239 0.078-0.132-0.027-0.242-0.039-0.32-0.039 0 0.028 0.012 0.055 0.039 0.082 0.028 0.024 0.039 0.051 0.039 0.078-0.023 0.106-0.078 0.161-0.16 0.161-0.078-0.028-0.238-0.079-0.476-0.161-0.27-0.078-0.469-0.121-0.602-0.121-0.105-0.023-0.199-0.011-0.281 0.043-0.078 0.051-0.16 0.078-0.239 0.078-0.027 0-0.082-0.011-0.16-0.039l-0.121-0.039c-0.054-0.027-0.078-0.027-0.078 0-0.055-0.027-0.121-0.027-0.199 0-0.027 0.024-0.055 0.078-0.082 0.16-0.028 0.133-0.094 0.211-0.199 0.239-0.161 0.082-0.414 0.093-0.762 0.039-0.133-0.024-0.332-0.078-0.598-0.16-0.242-0.078-0.402-0.133-0.48-0.161-0.055 0-0.121 0.028-0.199 0.083-0.082 0.054-0.176 0.066-0.282 0.039-0.027 0-0.082-0.012-0.16-0.039-0.082-0.028-0.133-0.055-0.16-0.083-0.719-0.105-1.52 0.028-2.398 0.403-0.856 0.398-1.547 0.906-2.082 1.519-0.454 0.508-0.801 0.895-1.04 1.161-0.425 0.48-0.8 0.824-1.121 1.039-0.078 0.054-0.238 0.121-0.48 0.199-0.399 0.137-0.625 0.215-0.68 0.242-0.531 0.211-0.867 0.426-1 0.641 0.106 0.078 0.227 0.16 0.36 0.238h0.082c0-0.027 0.011-0.039 0.039-0.039 0.082-0.293 0.425-0.481 1.039-0.563 0.402-0.078 0.816-0.105 1.242-0.078 0.238 0.028 0.519 0 0.84-0.082 0.293-0.105 0.597-0.238 0.918-0.398 0.402-0.215 0.722-0.414 0.961-0.602 0.347-0.238 0.558-0.492 0.64-0.758 0.051-0.054 0.078-0.148 0.078-0.281 0.028-0.16 0.055-0.266 0.082-0.32 0.215-0.504 0.547-0.852 1-1.039 0.426-0.16 0.895-0.199 1.399-0.121 0.027-0.266 0.055-0.438 0.082-0.52 0.027-0.105 0.16-0.16 0.398-0.16 0.161 0 0.309 0.016 0.442 0.043 0.293 0.023 0.664 0.105 1.121 0.238 0.476 0.133 0.73 0.199 0.758 0.199 0.16 0.028 0.414 0.016 0.761-0.039 0.321-0.027 0.559-0.054 0.719-0.082 0.028-0.105 0-0.183-0.082-0.238-0.078-0.078-0.117-0.16-0.117-0.238 0.027-0.11 0.066-0.176 0.117-0.203l0.203 0.043c0.133 0 0.266 0.039 0.399 0.117 0.132 0.082 0.332 0.121 0.601 0.121 0.239 0 0.453-0.039 0.641-0.121 0.133-0.106 0.223-0.16 0.277-0.16 0.106 0 0.242 0.027 0.403 0.082 0.132 0.05 0.277 0.078 0.437 0.078 0.348-0.024 0.602-0.067 0.762-0.117 0.187-0.055 0.371-0.176 0.558-0.364 0.082-0.078 0.133-0.211 0.161-0.398 0.054-0.266 0.105-0.442 0.16-0.52 0.027-0.054 0.199-0.121 0.519-0.199 0.321-0.109 0.586-0.281 0.801-0.519 0.055-0.082 0.227-0.348 0.52-0.801 0.242-0.508 0.375-0.789 0.402-0.84-0.027-0.055-0.11-0.188-0.242-0.402-0.133-0.184-0.2-0.305-0.2-0.36-0.027-0.265 0.055-0.48 0.239-0.64 0.269-0.266 0.426-0.465 0.48-0.598 0.028-0.055 0.039-0.359 0.039-0.922 0-0.558 0.094-0.984 0.282-1.277 0.16-0.297 0.558-0.524 1.199-0.684 0.64-0.156 1.082-0.277 1.32-0.359z" inkscape:connector-curvature="0"/>
      <path id="path28" style="fill-rule:evenodd;fill:#df5956" d="m24.48 1.519h0.399c0.109 0 0.32-0.093 0.641-0.277 0.132-0.137 0.199-0.27 0.199-0.402 0-0.161-0.067-0.293-0.199-0.399-0.161 0.078-0.293 0.133-0.399 0.16-0.082 0.024-0.16 0.051-0.242 0.078-0.16 0.055-0.332 0.094-0.52 0.122-0.347 0.078-0.691 0.144-1.039 0.199-0.347 0.027-0.679 0.066-1 0.121-0.187 0.055-0.347 0.121-0.48 0.199-0.375 0.188-0.719 0.375-1.039 0.559-0.055 0.054-0.121 0.093-0.199 0.121-0.082 0.054-0.161 0.121-0.243 0.199-0.027 0.027-0.05 0.043-0.078 0.043-0.027 0.023-0.054 0.051-0.082 0.078-0.054 0.055-0.121 0.133-0.199 0.238-0.078 0.11-0.172 0.215-0.281 0.321-0.106 0.109-0.184 0.214-0.239 0.32-0.054 0.109-0.132 0.215-0.242 0.32-0.293 0.348-0.613 0.68-0.957 1-0.426 0.403-0.695 0.879-0.801 1.442-0.027 0.132-0.054 0.281-0.082 0.437-0.21 0.778-0.613 1.363-1.199 1.762-0.133 0.105-0.277 0.172-0.437 0.199-0.188 0-0.375-0.012-0.563-0.039-0.187 0-0.304 0.094-0.359 0.281-0.028 0.133-0.067 0.254-0.121 0.36-0.133 0.32-0.36 0.57-0.68 0.757-0.293 0.161-0.625 0.188-1 0.083-0.051-0.028-0.094-0.028-0.117 0-0.082 0-0.149 0.027-0.203 0.078-0.106 0.027-0.211 0.054-0.321 0.082-0.16 0.05-0.32 0.066-0.476 0.039-0.082 0-0.16 0.015-0.242 0.039-0.239 0.027-0.399 0.16-0.481 0.402-0.027 0.051-0.078 0.094-0.16 0.117-0.238 0.055-0.48 0.016-0.719-0.117-0.215-0.16-0.441-0.254-0.679-0.281-0.055 0.027-0.094 0.055-0.121 0.082-0.161 0.105-0.332 0.133-0.52 0.078-0.32-0.105-0.629-0.16-0.922-0.16-0.156 0.027-0.332 0.055-0.519 0.082-0.399 0.105-0.786 0.238-1.161 0.398-0.343 0.133-0.652 0.332-0.918 0.602-0.16 0.133-0.32 0.266-0.48 0.398-0.238 0.215-0.48 0.426-0.719 0.641-0.613 0.559-1.187 1.172-1.722 1.84-0.852 0.398-1.68 0.84-2.481 1.32v0.117c-0.023 0.137 0.016 0.254 0.121 0.364 0.133-0.215 0.469-0.43 1-0.641 0.055-0.027 0.281-0.105 0.68-0.242 0.242-0.078 0.402-0.145 0.48-0.199 0.321-0.215 0.696-0.559 1.121-1.039 0.239-0.266 0.586-0.653 1.04-1.161 0.535-0.613 1.226-1.121 2.082-1.519 0.878-0.375 1.679-0.508 2.398-0.403 0.027 0.028 0.078 0.055 0.16 0.083 0.078 0.027 0.133 0.039 0.16 0.039 0.106 0.027 0.2 0.015 0.282-0.039 0.078-0.055 0.144-0.083 0.199-0.083 0.078 0.028 0.238 0.083 0.48 0.161 0.266 0.082 0.465 0.136 0.598 0.16 0.348 0.054 0.601 0.043 0.762-0.039 0.105-0.028 0.171-0.106 0.199-0.239 0.027-0.082 0.055-0.136 0.082-0.16 0-0.027 0.105-0.093 0.316-0.203 0.188-0.078 0.242-0.222 0.16-0.437 0.161 0.265 0.481 0.386 0.961 0.359 0.508-0.055 0.961-0.281 1.36-0.68 0.375-0.398 0.629-0.613 0.761-0.64h0.442c0.449-0.028 0.906-0.227 1.359-0.602 0.481-0.426 0.785-0.918 0.918-1.476 0-0.028 0.016-0.309 0.039-0.84 0.028-0.321 0.137-0.551 0.321-0.684 0.027-0.023 0.148-0.078 0.363-0.156 0.183-0.082 0.25-0.227 0.199-0.441-0.082-0.215-0.066-0.375 0.039-0.481 0.106-0.105 0.238-0.215 0.399-0.32 0.136-0.078 0.336-0.305 0.601-0.68 0.055-0.105 0.106-0.187 0.16-0.238h0.02c0.015-0.008 0.019-0.02 0.019-0.043 0.082-0.106 0.149-0.199 0.2-0.278 0.269-0.269 0.761-0.496 1.48-0.679l0.441-0.203c0.293-0.161 0.508-0.254 0.641-0.278 0.266-0.082 0.664-0.121 1.199-0.121 0.051 0.028 0.106 0.039 0.16 0.039z" inkscape:connector-curvature="0"/>
      <path id="path30" style="fill-rule:evenodd;fill:#d34f42" d="m1.719 16.519c-0.024-0.051-0.024-0.105 0-0.16 0-0.051 0.043-0.094 0.121-0.117 0.055-0.055 0.121-0.082 0.199-0.082l0.242 0.082c0.133 0.023 0.227 0.051 0.278 0.078 0.187 0 0.453-0.055 0.8-0.16 0.243-0.078 0.453-0.121 0.641-0.121l-0.039-0.039c0.051-0.028 0.105-0.039 0.16-0.039-0.027-0.028-0.055-0.039-0.082-0.039-0.078-0.028-0.133-0.043-0.16-0.043-0.16 0-0.371 0.027-0.641 0.082-0.316 0.054-0.57 0.093-0.758 0.121-0.292-0.055-0.507-0.082-0.64-0.082-0.293 0.027-0.481 0.16-0.559 0.398 0.16 0.055 0.305 0.094 0.438 0.121z" inkscape:connector-curvature="0"/>
    </g>
  </g>
<metadata><rdf:RDF><cc:Work><dc:format>image/svg+xml</dc:format><dc:type rdf:resource="http://purl.org/dc/dcmitype/StillImage"/><cc:license rdf:resource="http://creativecommons.org/licenses/publicdomain/"/><dc:publisher><cc:Agent rdf:about="http://openclipart.org/"><dc:title>Openclipart</dc:title></cc:Agent></dc:publisher></cc:Work><cc:License rdf:about="http://creativecommons.org/licenses/publicdomain/"><cc:permits rdf:resource="http://creativecommons.org/ns#Reproduction"/><cc:permits rdf:resource="http://creativecommons.org/ns#Distribution"/><cc:permits rdf:resource="http://creativecommons.org/ns#DerivativeWorks"/></cc:License></rdf:RDF></metadata></svg>
