<?xml version="1.0" encoding="UTF-8"?>
<!DOCTYPE svg PUBLIC "-//W3C//DTD SVG 1.1//EN" "http://www.w3.org/Graphics/SVG/1.1/DTD/svg11.dtd">
<svg version="1.1" xmlns="http://www.w3.org/2000/svg" xmlns:xlink="http://www.w3.org/1999/xlink" x="0" y="0" width="485" height="434" viewBox="0, 0, 485, 434">
  <g id="Layer_1">
    <path d="M34.367,237.69 C48.711,239.736 68.93,240.069 90.676,239.46 C120.261,238.629 152.346,236.059 176.453,233.652 L180.87,233.211 L181.528,237.93 C185.106,263.595 186.054,300.458 176.647,328.104 C169.746,348.383 157.309,363.809 136.367,366.763 C117.895,369.368 93.915,364.204 72.142,354.49 C50.481,344.827 30.81,330.562 20.596,314.807 C14.045,304.703 13.755,291.769 16.693,278.158 C19.482,265.236 25.173,251.591 31.019,239.34 L31.97,237.348 L34.367,237.69" fill="#6F6B4C"/>
    <path d="M92.516,247.529 C71.646,248.114 52.03,247.821 37.315,245.977 C31.974,257.352 26.908,269.776 24.396,281.416 C21.887,293.045 21.913,303.756 26.881,311.418 C35.938,325.389 53.915,338.277 73.911,347.198 C94.352,356.319 116.708,361.19 133.737,358.787 C151.949,356.219 162.909,342.374 169.116,324.131 C177.566,299.302 177.262,266.515 174.342,242.104 C150.536,244.406 120.274,246.749 92.516,247.529" fill="#F2DAB6"/>
    <path d="M24.396,281.416 C21.887,293.045 21.913,303.756 26.881,311.418 C35.938,325.389 53.915,338.277 73.911,347.198 C94.352,356.319 116.708,361.19 133.737,358.787 C134.583,358.669 135.413,358.525 136.226,358.358 C88.153,356.322 49.415,333.869 24.396,281.416" fill="#EDD0A4"/>
    <path d="M42.076,254.412 C92.389,364.807 170.292,381.706 170.302,250.355 C127.561,251.707 84.819,253.06 42.076,254.412" fill="#FCF4E6"/>
    <path d="M255.341,431.297 C380.727,431.297 482.994,397.65 482.994,356.393 C482.994,315.138 380.727,281.489 255.341,281.489 C129.955,281.489 27.69,315.138 27.69,356.393 C27.69,397.65 129.955,431.297 255.341,431.297" fill="#DCD3D3"/>
    <path d="M409.548,335.921 C409.371,337.341 409.137,338.766 408.848,340.194 C405.648,355.944 398.954,367.171 390.604,374.711 C384.209,380.483 376.844,384.081 369.321,385.88 C361.843,387.668 354.221,387.663 347.255,386.247 C340.155,384.805 333.691,381.891 328.688,377.9 C320.885,392.391 310.507,402.952 298.98,409.727 C287.559,416.437 275.027,419.42 262.738,418.824 C250.437,418.228 238.385,414.044 227.937,406.424 C218.464,399.515 210.326,389.786 204.547,377.361 C196.771,386.195 185.894,391.615 174.89,393.24 C169.903,393.975 164.85,393.929 160.016,393.064 C155.13,392.19 150.491,390.478 146.379,387.889 C138.276,382.785 132.267,374.383 130.502,362.428 C130.09,359.637 129.785,356.866 129.571,354.115 C123.627,350.831 118.165,346.061 113.599,340.034 C105.883,329.849 100.718,316.019 100.147,299.665 C99.585,283.554 103.489,264.986 113.846,245.081 C126.124,221.483 147.517,195.919 181.379,170.267 C215.724,144.249 219.446,111.07 223.709,73.061 C225.614,56.092 227.623,38.19 232.392,19.463 C234.859,9.775 248.526,3.604 262.125,2.242 C266.412,1.813 270.721,1.84 274.669,2.368 C278.792,2.92 282.572,4.028 285.613,5.744 C291.215,8.907 294.346,13.868 293.03,20.875 C287.91,48.127 290.806,73.993 300.021,97.725 C309.922,123.227 327.147,146.329 349.586,166.1 C387.765,199.738 414.645,228.543 426.115,255.707 C437.827,283.448 433.706,309.167 409.548,335.921" fill="#864360"/>
    <path d="M290.645,193.888 C302.75,241.959 355.207,304.668 335.735,361.648 C334.673,364.755 333.509,367.733 332.256,370.581 C336.396,374.395 342.232,377.197 348.798,378.532 C354.71,379.734 361.171,379.739 367.499,378.226 C373.78,376.724 379.946,373.705 385.326,368.846 C392.516,362.355 398.307,352.55 401.131,338.651 C410.011,294.956 354.236,249.434 341.78,205.072 C360.463,241.954 405.724,277.387 409.762,323.341 C426.116,301.812 428.232,280.956 418.86,258.762 C407.948,232.916 381.734,204.947 344.372,172.026 C321.024,151.454 303.063,127.315 292.676,100.564 C284.638,79.22 280.196,55.991 283.96,33.294 C284.821,28.108 271.522,31.187 267.254,31.247 C260.309,31.346 242.616,27.013 240.066,29.415 C236.201,33.054 232.262,67.582 231.549,73.925 C227.083,113.741 223.182,148.495 186.133,176.563 C153.301,201.434 132.637,226.07 120.851,248.722 C111.158,267.352 107.499,284.577 108.017,299.417 C108.527,314.015 113.087,326.294 119.895,335.28 C122.668,338.943 125.816,342.049 129.208,344.529 C129.294,298.235 161.889,236.81 190.431,199.637 C165.303,248.085 130.114,305.754 138.311,361.284 C139.705,370.727 144.343,377.295 150.578,381.22 C153.821,383.265 157.506,384.62 161.405,385.317 C165.353,386.023 169.545,386.052 173.749,385.431 C184.283,383.877 194.652,378.226 201.153,368.955 C200.005,365.648 199.011,362.183 198.185,358.562 C183.654,294.853 226.717,249.132 238.548,197.111 C233.094,251.483 193.491,302.564 205.871,356.831 C210.367,376.548 220.215,391.058 232.567,400.067 C241.742,406.758 252.318,410.43 263.109,410.953 C273.911,411.478 284.938,408.848 294.998,402.936 C308.923,394.754 321.039,380.268 328.266,359.118 C345.066,309.959 295.765,245.716 290.645,193.888" fill="#F2D5DF"/>
    <path d="M290.645,193.888 C297.397,220.704 316.703,252.074 329.079,284.464 C347.355,276.161 358.603,260.908 349.564,234.465 C345.846,224.971 342.803,217.833 337.039,209.318 C335.432,207.164 333.833,205.014 332.187,202.892 C305.529,168.705 285.167,151.862 279.684,106.751 C278.201,92.573 279.905,42.318 263.333,36.907 C244.477,30.75 239.731,54.02 238.381,67.182 C231.514,134.18 235.889,153.704 182.818,202.962 C157.387,226.365 150.761,243.356 155.313,255.842 C165.962,234.797 178.547,215.113 190.431,199.637 C180.306,219.159 168.548,240.181 158.653,261.954 C166.749,272.777 184.446,279.528 204.467,284.032 C215.064,254.128 231.835,226.633 238.548,197.111 C235.52,227.294 221.97,256.464 212.631,285.728 C229.502,288.961 247.285,290.838 261.931,292.363 C278.952,294.05 302.478,293.606 321.321,287.461 C310.112,255.589 293.502,222.807 290.645,193.888" fill="#FBEDF0"/>
    <path d="M203.494,335.575 C229.842,373.188 310.129,378.019 329.187,314.574 C332.483,330.209 333,345.263 328.266,359.118 C321.039,380.268 308.923,394.754 294.998,402.936 C284.938,408.848 273.911,411.478 263.109,410.953 C252.318,410.43 241.742,406.758 232.567,400.067 C220.215,391.058 210.367,376.548 205.871,356.831 C204.243,349.697 203.521,342.616 203.494,335.575 z M139.7,318.172 C136.971,332.555 136.201,346.991 138.311,361.284 C139.705,370.727 144.343,377.295 150.578,381.22 C153.821,383.265 157.506,384.62 161.405,385.317 C165.353,386.023 169.545,386.052 173.749,385.431 C184.283,383.877 194.652,378.226 201.153,368.955 C200.005,365.648 199.011,362.183 198.185,358.562 C195.75,347.884 194.939,337.712 195.32,327.933 C174.612,342.019 156.004,339.304 139.7,318.172 z M111.171,273.271 C108.688,282.585 107.736,291.354 108.017,299.417 C108.527,314.015 113.087,326.294 119.895,335.28 C122.668,338.943 125.816,342.049 129.208,344.529 C129.226,334.716 130.71,324.22 133.301,313.42 C113.779,316.601 108.435,300.444 111.171,273.271 z M398.995,288.543 C410.779,288.129 417.985,279.1 417.029,254.704 C417.679,256.062 418.292,257.415 418.86,258.762 C428.232,280.956 426.116,301.812 409.762,323.341 C408.684,311.066 404.663,299.544 398.995,288.543 z M338.945,320.417 C340.918,334.302 340.352,348.136 335.735,361.648 C334.673,364.755 333.509,367.733 332.256,370.581 C336.396,374.395 342.232,377.197 348.798,378.532 C354.71,379.734 361.171,379.739 367.499,378.226 C373.78,376.724 379.946,373.705 385.326,368.846 C392.516,362.355 398.307,352.55 401.131,338.651 C404.576,321.699 398.288,304.474 388.576,287.147 C381.081,323.123 364.217,333.333 338.945,320.417" fill="#ECC2D1"/>
    <path d="M388.248,323.718 C393.942,299.268 378.453,285.412 368.18,268.947 C376.392,284.918 385.93,298.902 388.248,323.718 z M379.886,347.13 C375.008,290.409 341.358,260.666 328.879,207.069 C349.82,264.235 378.657,289.099 379.886,347.13 z M366.09,369.707 C365.358,326.436 349.366,292.152 338.495,248.042 C353.776,292.337 372.57,327.271 366.09,369.707 z M352.292,360.928 C357.635,322.302 330.273,275.637 319.263,232.991 C325.467,275.465 353.617,320.373 352.292,360.928" fill="#D08AA9"/>
    <path d="M145.263,323.718 C139.569,299.268 155.06,285.412 165.333,268.947 C157.119,284.918 147.583,298.902 145.263,323.718 z M153.625,347.13 C158.502,290.409 192.155,260.666 204.631,207.069 C183.693,264.235 154.855,289.099 153.625,347.13 z M167.422,369.707 C168.154,326.436 184.146,292.152 195.016,248.042 C179.736,292.337 160.942,327.271 167.422,369.707 z M181.22,360.928 C175.875,322.302 203.238,275.637 214.249,232.991 C208.045,275.465 179.895,320.373 181.22,360.928" fill="#D08AA9"/>
    <path d="M264.153,256.226 C278.204,256.226 289.665,246.896 289.665,235.455 C289.665,224.015 278.204,214.684 264.153,214.684 C250.101,214.684 238.64,224.015 238.64,235.455 C238.64,246.896 250.101,256.226 264.153,256.226" fill="#FFFFFE"/>
    <path d="M264.425,202.309 C274.711,202.309 283.1,195.652 283.1,187.491 C283.1,179.33 274.711,172.673 264.425,172.673 C254.139,172.673 245.75,179.33 245.75,187.491 C245.75,195.652 254.139,202.309 264.425,202.309" fill="#FFFFFE"/>
    <path d="M263.589,163.618 C269.767,163.618 274.805,158.644 274.805,152.545 C274.805,146.445 269.767,141.471 263.589,141.471 C257.411,141.471 252.373,146.445 252.373,152.545 C252.373,158.644 257.411,163.618 263.589,163.618" fill="#FFFFFE"/>
    <path d="M220.438,357.082 C215.729,332.608 220.978,316.515 224.4,298.885 C219.138,317.565 208.137,335.197 220.438,357.082 z M235.011,377.225 C219.973,321.16 240.712,289.229 244.84,228.489 C247.838,283.438 223.842,321.4 235.011,377.225 z M254.569,395.045 C243.177,353.293 248.951,315.906 247.06,270.517 C244.767,317.317 236.486,356.111 254.569,395.045 z M265.361,382.759 C249.435,347.167 262.667,294.714 261.319,250.691 C267.231,293.206 252.756,344.191 265.361,382.759" fill="#D08AA9"/>
    <path d="M317.909,338.302 C328.381,315.486 315.976,298.811 309.207,280.623 C314.057,297.915 320.603,313.526 317.909,338.302 z M305.031,359.569 C311.602,303.019 284.583,267.143 283.082,212.133 C292.159,272.332 315.438,302.463 305.031,359.569 z M286.996,378.928 C294.938,336.384 286.129,299.594 284.305,254.201 C290.415,300.658 301.838,338.646 286.996,378.928 z M275.234,367.565 C288.199,330.789 270.726,279.593 268.472,235.607 C266.054,278.462 284.646,328.095 275.234,367.565" fill="#D08AA9"/>
    <path d="M122,268.452 C129.324,244.631 141.509,232.882 152.804,218.919 C139.392,232.945 121.405,243.356 122,268.452 z M126.574,306.875 C128.874,264.008 154.39,233.635 178.374,193.383 C158.745,234.353 136.104,264.658 126.574,306.875" fill="#D08AA9"/>
    <path d="M411.125,261.646 C400.725,238.997 387.096,228.957 374.061,216.605 C389.205,228.741 408.408,236.69 411.125,261.646 z M411.656,300.337 C403.726,258.147 374.428,231.402 345.348,194.661 C370.206,232.687 396.644,259.744 411.656,300.337" fill="#D08AA9"/>
    <path d="M20.958,304.68 C35.303,303.672 55.521,299.701 77.267,294.461 C104.897,287.804 132.25,279.904 159.41,271.513 C161.497,270.868 163.553,271.155 165.386,272.346 C167.218,273.537 168.316,275.301 168.574,277.471 C171.993,306.234 171.94,337.38 163.239,364.801 C156.337,386.55 143.901,404.623 122.958,412.036 C104.487,418.575 80.506,418.517 58.734,413.439 C37.073,408.387 17.401,398.309 7.187,384.73 C0.637,376.022 0.347,363.148 3.285,348.91 C6.074,335.395 11.765,320.539 17.61,307.044 L18.562,304.849 L20.958,304.68" fill="#6F6B4C"/>
    <path d="M79.107,302.139 C58.238,307.168 38.622,311.051 23.906,312.34 C18.565,324.852 13.499,338.355 10.988,350.53 C8.479,362.694 8.504,373.399 13.473,380.003 C22.53,392.045 40.507,401.107 60.502,405.77 C80.944,410.537 103.299,410.649 120.329,404.621 C138.541,398.175 149.5,381.996 155.708,362.432 C163.166,338.929 163.802,310.681 161.845,288.015 C161.282,281.504 160.033,279.587 152.686,281.822 C130.367,288.611 103.75,296.2 79.107,302.139" fill="#F2DAB6"/>
    <path d="M10.988,350.53 C8.479,362.694 8.504,373.399 13.473,380.003 C22.53,392.045 40.507,401.107 60.502,405.77 C80.944,410.537 103.299,410.649 120.329,404.621 C121.174,404.321 122.004,404 122.818,403.66 C74.744,411.861 36.007,397.655 10.988,350.53" fill="#EDD0A4"/>
    <path d="M28.668,319.761 C78.98,419.444 156.883,419.756 156.894,288.402 C114.153,298.857 71.411,309.309 28.668,319.761" fill="#FCF4E6"/>
  </g>
</svg>
